#!OML:ASF E:\emotionWalksFemale\Project 1\Capture day 1\Session 1\Female1.ASF
:FULLY-SPECIFIED
:DEGREES
2099
root 9.8537 15.3793 -27.6797 361.149 0.891432 -356.773
lowerback 7.47566 -0.0987203 -1.85899
upperback -3.80634 -0.309548 0.349196
thorax -8.20596 -0.0386569 1.45871
lowerneck -2.22584 -8.40946 -9.66661
upperneck 5.55092 -11.2726 6.95642
head 2.95348 -5.62043 3.18873
rclavicle -8.19987e-016 -8.74653e-015
rhumerus -38.1842 -6.46709 -77.3231
rradius 31.9281
rwrist 20.5342
rhand -6.09388 -54.9749
rfingers 7.12502
rthumb 19.7421 276.008
lclavicle -8.19987e-016 -8.74653e-015
lhumerus -36.4627 7.68646 77.3249
lradius 40.0575
lwrist -8.11605
lhand -4.65012 -33.871
lfingers 7.12502
lthumb 21.1295 -5.00238
rfemur -30.0377 2.47548 21.7878
rtibia 48.2404
rfoot -15.6392 -20.794
rtoes 0.0152187
lfemur 1.47652 -16.2655 -32.9574
ltibia 17.72
lfoot -19.308 14.0946
ltoes -32.8886
2100
root 9.84308 15.3855 -27.5698 361.273 1.32438 -356.781
lowerback 7.875 -0.16385 -2.03534
upperback -4.38296 -0.432286 0.329739
thorax -9.06143 -0.0740005 1.5623
lowerneck -0.936587 -8.3671 -9.66081
upperneck 5.36022 -11.3241 6.94039
head 2.68982 -5.6727 3.24285
rclavicle 2.13694e-015 5.56597e-015
rhumerus -40.0149 -6.68783 -76.8124
rradius 31.8159
rwrist 20.7744
rhand -6.58463 -54.6513
rfingers 7.12502
rthumb 19.2703 276.283
lclavicle 2.13694e-015 5.56597e-015
lhumerus -37.2593 6.69571 77.7888
lradius 40.6472
lwrist -7.96548
lhand -4.97388 -33.5566
lfingers 7.12502
lthumb 20.8185 -4.65351
rfemur -30.1077 3.18293 21.6232
rtibia 45.6696
rfoot -15.7669 -21.2875
rtoes 0.706709
lfemur 2.19058 -16.722 -32.9913
ltibia 17.1246
lfoot -19.4503 13.7451
ltoes -31.206
2101
root 9.84363 15.3826 -27.4736 361.295 1.33745 -356.845
lowerback 7.56474 -0.137967 -1.89605
upperback -3.9408 -0.375699 0.265913
thorax -8.4012 -0.0682528 1.40247
lowerneck -1.62781 -8.47537 -9.52775
upperneck 5.0626 -11.4081 7.09844
head 2.72151 -5.69238 3.23976
rclavicle 5.86415e-015 6.75868e-015
rhumerus -39.8302 -7.10282 -76.7559
rradius 31.2437
rwrist 19.5031
rhand -9.29223 -53.3572
rfingers 7.12502
rthumb 16.6651 277.338
lclavicle 5.86415e-015 6.75868e-015
lhumerus -36.0142 6.367 78.3197
lradius 40.8517
lwrist -7.73893
lhand -5.01809 -33.313
lfingers 7.12502
lthumb 20.776 -4.40523
rfemur -30.2148 4.01433 21.4637
rtibia 43.0618
rfoot -15.4511 -21.8061
rtoes 0.602395
lfemur 2.84004 -16.823 -33.0617
ltibia 16.6201
lfoot -19.4056 13.9397
ltoes -31.2047
2102
root 9.83548 15.3817 -27.369 361.407 1.44006 -356.88
lowerback 7.65082 -0.176633 -1.98207
upperback -4.128 -0.437265 0.311886
thorax -8.65175 -0.0874071 1.51047
lowerneck -1.26799 -8.39145 -9.72187
upperneck 4.97064 -11.3219 7.17715
head 2.64389 -5.6586 3.31565
rclavicle -4.77083e-015 -9.54166e-015
rhumerus -40.8507 -7.39012 -76.1662
rradius 31.5179
rwrist 20.8169
rhand -6.91082 -54.1911
rfingers 7.12502
rthumb 18.9566 276.713
lclavicle -4.77083e-015 -9.54166e-015
lhumerus -36.0785 5.97087 78.6983
lradius 41.1998
lwrist -7.25796
lhand -4.99183 -33.3184
lfingers 7.12502
lthumb 20.8013 -4.41338
rfemur -30.2699 4.96939 21.2383
rtibia 40.4129
rfoot -15.2165 -22.5101
rtoes 0.952979
lfemur 3.33064 -16.7854 -33.0727
ltibia 16.3128
lfoot -19.3171 14.1716
ltoes -31.9652
2103
root 9.82062 15.3808 -27.2591 361.519 1.58481 -357.001
lowerback 7.64946 -0.177465 -2.02937
upperback -4.11773 -0.441708 0.335528
thorax -8.63932 -0.0862585 1.56273
lowerneck -1.64251 -8.45724 -9.69594
upperneck 5.05471 -11.3808 7.17122
head 2.73304 -5.67983 3.28759
rclavicle 6.23687e-015 2.78299e-015
rhumerus -41.4656 -7.7924 -75.7972
rradius 31.4388
rwrist 20.9121
rhand -6.87064 -54.119
rfingers 7.12502
rthumb 18.9952 276.789
lclavicle 6.23687e-015 2.78299e-015
lhumerus -35.768 5.40291 79.0626
lradius 41.4893
lwrist -6.79404
lhand -4.78786 -33.662
lfingers 7.12502
lthumb 20.9972 -4.77859
rfemur -30.2175 6.21222 21.0311
rtibia 37.7926
rfoot -15.1379 -23.3812
rtoes 1.78488
lfemur 3.78725 -16.8792 -32.9653
ltibia 16.1561
lfoot -19.5628 14.158
ltoes -30.8032
2104
root 9.80803 15.3773 -27.1601 361.608 1.81794 -357.167
lowerback 7.65917 -0.248043 -1.82853
upperback -4.13648 -0.519849 0.261906
thorax -8.66356 -0.138004 1.38359
lowerneck -1.42619 -8.47377 -9.64029
upperneck 4.77971 -11.4181 7.27091
head 2.62141 -5.69877 3.32265
rclavicle 8.89561e-015 -1.98785e-015
rhumerus -42.0649 -8.24639 -75.5953
rradius 31.2146
rwrist 20.8267
rhand -7.07865 -54.2401
rfingers 7.12502
rthumb 18.7952 276.648
lclavicle 8.89561e-015 -1.98785e-015
lhumerus -35.516 4.79579 79.2755
lradius 41.713
lwrist -6.55143
lhand -4.68026 -33.7563
lfingers 7.12502
lthumb 21.1006 -4.88441
rfemur -30.177 7.49638 20.7984
rtibia 35.2758
rfoot -15.0836 -24.3579
rtoes 2.89467
lfemur 4.28618 -17.0636 -32.7891
ltibia 15.8244
lfoot -19.927 13.7961
ltoes -29.3126
2105
root 9.80162 15.3682 -27.0668 361.697 2.07478 -357.15
lowerback 7.90275 -0.30818 -1.95767
upperback -4.39392 -0.619278 0.309406
thorax -9.08239 -0.169928 1.52637
lowerneck -0.747678 -8.47399 -9.79209
upperneck 4.74476 -11.4658 7.14227
head 2.50618 -5.74221 3.33666
rclavicle 2.11209e-015 -6.36111e-015
rhumerus -43.1914 -8.24642 -75.127
rradius 31.3058
rwrist 20.7997
rhand -6.91093 -54.4822
rfingers 7.12502
rthumb 18.9565 276.422
lclavicle 2.11209e-015 -6.36111e-015
lhumerus -35.674 4.38148 79.748
lradius 41.85
lwrist -6.59943
lhand -5.12888 -33.7996
lfingers 7.12502
lthumb 20.6696 -4.8802
rfemur -30.2028 8.55715 20.337
rtibia 32.9211
rfoot -15.1431 -25.2984
rtoes 2.89828
lfemur 4.8346 -17.1558 -32.8308
ltibia 15.296
lfoot -19.7247 13.6021
ltoes -30.253
2106
root 9.79635 15.3597 -26.9589 361.718 2.3157 -356.985
lowerback 7.99885 -0.383185 -1.99479
upperback -4.22249 -0.735256 0.182815
thorax -8.94829 -0.231497 1.43054
lowerneck -1.67412 -8.58206 -9.71004
upperneck 5.01561 -11.5348 7.04032
head 2.73258 -5.7589 3.24104
rclavicle -9.19379e-016 -2.78299e-015
rhumerus -43.5797 -8.51022 -74.8952
rradius 31.4766
rwrist 20.9074
rhand -6.54343 -54.7936
rfingers 7.12502
rthumb 19.3099 276.145
lclavicle -9.19379e-016 -2.78299e-015
lhumerus -35.1079 3.93483 80.1012
lradius 42.0911
lwrist -6.48144
lhand -5.48759 -33.8954
lfingers 7.12502
lthumb 20.3249 -4.93889
rfemur -30.1113 9.73407 19.6329
rtibia 30.7703
rfoot -15.7868 -26.3136
rtoes 2.99766
lfemur 5.58928 -17.1126 -33.0961
ltibia 14.6505
lfoot -18.9618 13.8694
ltoes -32.8906
2107
root 9.79032 15.3547 -26.8398 361.71 2.62348 -356.765
lowerback 7.84407 -0.451371 -2.23225
upperback -4.31044 -0.856901 0.124698
thorax -8.94672 -0.277785 1.51972
lowerneck -1.03632 -8.52593 -9.85418
upperneck 4.71709 -11.5009 7.05799
head 2.54629 -5.75632 3.30609
rclavicle -1.66482e-015 3.97569e-016
rhumerus -44.5595 -8.63081 -74.4086
rradius 31.4436
rwrist 21.0573
rhand -6.47318 -53.7772
rfingers 7.12502
rthumb 19.3774 277.168
lclavicle -1.66482e-015 3.97569e-016
lhumerus -35.3751 3.30708 80.55
lradius 42.5385
lwrist -6.33055
lhand -5.79833 -34.0572
lfingers 7.12502
lthumb 20.0262 -5.06923
rfemur -29.9738 11.2796 18.7027
rtibia 28.8976
rfoot -16.9804 -27.662
rtoes 4.45294
lfemur 6.56985 -17.021 -33.4286
ltibia 13.7822
lfoot -18.2125 14.0601
ltoes -34.7414
2108
root 9.77942 15.3511 -26.7235 361.713 2.89811 -356.578
lowerback 7.67385 -0.521298 -2.58344
upperback -4.12479 -0.979439 0.178572
thorax -8.63421 -0.321298 1.78845
lowerneck -1.44571 -8.50505 -10.0266
upperneck 4.48731 -11.4218 7.11097
head 2.55011 -5.709 3.33812
rclavicle 1.66482e-015 9.93923e-015
rhumerus -44.7011 -8.94795 -73.8428
rradius 31.0451
rwrist 21.3775
rhand -6.5832 -53.0756
rfingers 7.12502
rthumb 19.2716 277.859
lclavicle 1.66482e-015 9.93923e-015
lhumerus -34.8326 3.08237 81.0979
lradius 42.6923
lwrist -6.32959
lhand -6.10739 -34.1824
lfingers 7.12502
lthumb 19.7291 -5.16366
rfemur -29.9123 13.2397 17.6741
rtibia 27.2875
rfoot -18.4583 -29.2729
rtoes 7.08752
lfemur 7.65731 -16.9196 -33.667
ltibia 12.6956
lfoot -17.8058 13.7743
ltoes -34.5809
2109
root 9.76402 15.3461 -26.6084 361.681 3.06515 -356.422
lowerback 7.67372 -0.52806 -2.71796
upperback -4.12687 -1.01707 0.0138569
thorax -8.63578 -0.337273 1.69504
lowerneck -1.16132 -8.54575 -10.049
upperneck 4.38182 -11.508 7.2759
head 2.49088 -5.75417 3.40098
rclavicle -2.38542e-014 -1.59028e-015
rhumerus -45.4043 -9.33751 -73.5597
rradius 30.866
rwrist 21.6384
rhand -6.29932 -53.2261
rfingers 7.12502
rthumb 19.5446 277.736
lclavicle -2.38542e-014 -1.59028e-015
lhumerus -34.7503 2.54733 81.3076
lradius 42.9478
lwrist -6.18375
lhand -6.20395 -33.9792
lfingers 7.12502
lthumb 19.6363 -4.95095
rfemur -29.8567 15.3978 16.6534
rtibia 25.8601
rfoot -19.7582 -31.0382
rtoes 9.09737
lfemur 8.67848 -16.8261 -33.8554
ltibia 11.7805
lfoot -17.7142 13.3125
ltoes -33.1567
2110
root 9.753 15.3355 -26.4908 361.758 3.08561 -356.268
lowerback 7.44413 -0.504756 -2.90309
upperback -4.05392 -1.0046 -0.0761925
thorax -8.42198 -0.327961 1.6975
lowerneck -1.12026 -8.54016 -10.1072
upperneck 4.09314 -11.4989 7.439
head 2.41016 -5.74679 3.46698
rclavicle -6.08778e-015 3.97569e-015
rhumerus -45.8527 -9.56019 -73.3137
rradius 30.7846
rwrist 21.8441
rhand -5.79461 -54.1085
rfingers 7.12502
rthumb 20.0298 276.904
lclavicle -6.08778e-015 3.97569e-015
lhumerus -34.6022 2.14617 81.6207
lradius 43.2341
lwrist -6.17809
lhand -6.65421 -34.3308
lfingers 7.12502
lthumb 19.2034 -5.25886
rfemur -29.9981 17.5223 15.591
rtibia 24.594
rfoot -20.9376 -32.7318
rtoes 10.7394
lfemur 9.38129 -16.6331 -34.0486
ltibia 11.1791
lfoot -17.5521 13.2089
ltoes -33.3655
2111
root 9.73642 15.3303 -26.3924 361.789 3.56531 -356.177
lowerback 7.55493 -0.652924 -3.1088
upperback -3.92935 -1.22631 -0.059175
thorax -8.33711 -0.426747 1.86382
lowerneck -1.70223 -8.62912 -10.0072
upperneck 4.24662 -11.5578 7.17357
head 2.53386 -5.76826 3.33934
rclavicle -9.26834e-015 4.77083e-015
rhumerus -45.9562 -9.67904 -73.0568
rradius 30.6067
rwrist 22.0905
rhand -5.72332 -54.2375
rfingers 7.12502
rthumb 20.0983 276.782
lclavicle -9.26834e-015 4.77083e-015
lhumerus -34.1939 1.89914 81.9616
lradius 43.2688
lwrist -6.26486
lhand -7.02514 -35.1943
lfingers 7.12502
lthumb 18.8466 -6.08731
rfemur -30.1457 19.7474 14.4006
rtibia 23.5229
rfoot -22.7129 -34.8162
rtoes 13.9287
lfemur 9.9612 -16.4445 -34.0463
ltibia 10.7481
lfoot -17.2626 12.8066
ltoes -35.2058
2112
root 9.72331 15.3282 -26.2811 361.826 3.86808 -356.178
lowerback 7.69044 -0.738396 -3.15388
upperback -4.22563 -1.35702 -0.0527727
thorax -8.73032 -0.47684 1.92118
lowerneck -0.729474 -8.52367 -10.1878
upperneck 3.85257 -11.4901 7.23529
head 2.26695 -5.75434 3.44287
rclavicle 1.23992e-014 -5.1684e-015
rhumerus -47.0702 -9.47667 -72.691
rradius 30.5736
rwrist 22.1636
rhand -5.58245 -54.0511
rfingers 7.12502
rthumb 20.2337 276.983
lclavicle 1.23992e-014 -5.1684e-015
lhumerus -34.8405 1.4311 82.3031
lradius 43.8253
lwrist -5.71925
lhand -6.47848 -34.7964
lfingers 7.12502
lthumb 19.3723 -5.74133
rfemur -30.2997 22.0117 13.334
rtibia 22.6213
rfoot -24.3501 -36.8526
rtoes 16.6097
lfemur 10.5293 -16.5158 -34.0483
ltibia 10.4868
lfoot -17.2567 12.4684
ltoes -35.0631
